<?xml version="1.0" standalone="no"?>
<!DOCTYPE svg PUBLIC "-//W3C//DTD SVG 20010904//EN"
 "http://www.w3.org/TR/2001/REC-SVG-20010904/DTD/svg10.dtd">
<svg version="1.0" xmlns="http://www.w3.org/2000/svg"
 width="96.000000pt" height="96.000000pt" viewBox="0 0 96.000000 96.000000"
 preserveAspectRatio="xMidYMid meet">

<g transform="translate(0.000000,96.000000) scale(0.100000,-0.100000)"
fill="#000000" stroke="none">
<path d="M382 945 c-95 -21 -170 -62 -237 -130 -72 -72 -111 -149 -133 -258
-14 -70 -14 -85 1 -157 21 -107 58 -179 131 -254 72 -74 145 -111 256 -133 73
-15 87 -15 160 0 107 21 183 60 255 132 73 72 111 146 132 255 15 72 15 87 1
157 -22 109 -60 183 -132 256 -70 71 -143 111 -243 132 -82 18 -109 18 -191 0z
m284 -54 c94 -44 182 -131 226 -225 31 -68 33 -77 33 -186 0 -112 -1 -117 -36
-190 -23 -48 -56 -94 -90 -129 -35 -34 -81 -67 -129 -90 -73 -35 -78 -36 -190
-36 -112 0 -117 1 -190 36 -99 48 -171 121 -219 219 -35 73 -36 78 -36 191 0
113 1 116 38 192 45 92 117 167 200 208 81 41 119 49 228 45 84 -2 105 -7 165
-35z"/>
<path d="M438 622 c-28 -13 -38 -23 -38 -40 0 -21 3 -23 30 -17 l30 7 0 -136
0 -136 30 0 30 0 0 170 c0 170 0 170 -22 169 -13 0 -40 -8 -60 -17z"/>
</g>
</svg>
