<?xml version="1.0" standalone="no"?>
<!DOCTYPE svg PUBLIC "-//W3C//DTD SVG 20010904//EN"
 "http://www.w3.org/TR/2001/REC-SVG-20010904/DTD/svg10.dtd">
<svg version="1.0" xmlns="http://www.w3.org/2000/svg"
 width="96.000000pt" height="96.000000pt" viewBox="0 0 96.000000 96.000000"
 preserveAspectRatio="xMidYMid meet">

<g transform="translate(0.000000,96.000000) scale(0.100000,-0.100000)"
fill="#000000" stroke="none">
<path d="M382 945 c-92 -20 -165 -60 -236 -129 -73 -72 -111 -146 -134 -259
-14 -70 -14 -85 1 -157 21 -109 60 -183 132 -255 72 -72 146 -111 255 -132 73
-15 87 -15 160 0 109 21 183 60 255 132 73 72 111 146 133 257 14 74 14 88 0
157 -23 110 -62 186 -133 256 -69 69 -144 110 -242 130 -82 18 -109 18 -191 0z
m290 -57 c96 -46 166 -116 215 -215 37 -76 38 -79 38 -193 0 -114 -1 -118 -37
-191 -49 -100 -121 -171 -218 -218 -73 -35 -78 -36 -190 -36 -112 0 -117 1
-190 36 -99 49 -172 121 -219 219 -35 73 -36 78 -36 190 0 111 1 117 36 191
43 90 118 168 202 210 81 41 119 49 229 45 86 -3 104 -7 170 -38z"/>
<path d="M450 640 c-31 -8 -80 -49 -80 -69 0 -4 11 -13 24 -19 21 -9 26 -8 31
7 8 26 50 43 80 31 21 -8 25 -16 25 -52 0 -41 -4 -47 -80 -119 -52 -49 -80
-84 -80 -97 0 -21 4 -22 120 -22 l120 0 0 25 c0 23 -2 24 -82 27 l-82 3 46 35
c95 72 127 172 73 225 -13 14 -31 25 -39 25 -8 0 -20 2 -28 4 -7 2 -29 0 -48
-4z"/>
</g>
</svg>
