<?xml version="1.0" standalone="no"?>
<!DOCTYPE svg PUBLIC "-//W3C//DTD SVG 20010904//EN"
 "http://www.w3.org/TR/2001/REC-SVG-20010904/DTD/svg10.dtd">
<svg version="1.0" xmlns="http://www.w3.org/2000/svg"
 width="96.000000pt" height="96.000000pt" viewBox="0 0 96.000000 96.000000"
 preserveAspectRatio="xMidYMid meet">

<g transform="translate(0.000000,96.000000) scale(0.100000,-0.100000)"
fill="#000000" stroke="none">
<path d="M382 945 c-92 -20 -166 -61 -236 -129 -72 -72 -112 -148 -134 -259
-14 -70 -14 -85 1 -157 21 -109 60 -183 132 -255 72 -72 146 -111 255 -132 73
-15 87 -15 160 0 109 21 183 60 255 132 72 72 111 146 132 255 15 72 15 87 1
157 -22 110 -62 187 -133 258 -69 69 -144 109 -242 130 -82 18 -109 18 -191 0z
m290 -57 c96 -46 167 -117 216 -216 36 -75 37 -78 37 -192 0 -114 -1 -118 -37
-191 -49 -100 -121 -171 -218 -218 -73 -35 -78 -36 -190 -36 -112 0 -117 1
-190 36 -48 23 -94 56 -129 90 -34 35 -67 81 -90 129 -35 73 -36 78 -36 190 0
111 1 117 36 191 43 90 118 168 202 210 81 41 119 49 229 45 86 -3 104 -7 170
-38z"/>
<path d="M465 643 c-36 -8 -75 -25 -75 -33 0 -33 11 -38 51 -22 53 20 89 6 89
-37 0 -35 -17 -50 -64 -58 -26 -4 -36 -11 -36 -24 0 -15 7 -19 33 -19 62 0
102 -57 62 -90 -18 -15 -70 -15 -107 -1 -26 10 -38 0 -38 -30 0 -15 50 -30
101 -31 78 0 118 31 119 93 0 36 -32 79 -59 79 -7 0 1 13 18 29 39 37 42 81 6
116 -13 14 -31 25 -39 25 -8 0 -20 2 -28 4 -7 2 -22 2 -33 -1z"/>
</g>
</svg>
