<svg width="50" height="50" viewBox="0 0 50 50" fill="none" xmlns="http://www.w3.org/2000/svg">
<path d="M27.5146 11C27.2958 10.9604 26.2396 10.7833 25 10.7833C23.7604 10.7833 22.7041 10.9604 22.4854 11C22.3604 11.0208 22.3104 10.9 22.4062 10.8271C22.4937 10.7646 25 8.85625 25 8.85625L27.5916 10.8271C27.6896 10.9 27.6416 11.0229 27.5146 11ZM23.1854 23.3854C23.1854 23.3854 23.0521 23.4333 23.0187 23.55C23.5437 23.9521 23.9041 24.8708 25 24.8708C26.0958 24.8708 26.4583 23.9542 26.9812 23.5479C26.9479 23.4312 26.8146 23.3854 26.8146 23.3854C26.8146 23.3854 26.1271 23.5458 25 23.5458C23.8708 23.5458 23.1854 23.3854 23.1854 23.3854ZM25 21.8396C24.6958 21.8396 24.6291 21.725 24.4208 21.725C24.225 21.725 23.8396 21.8833 23.7562 22.0292C23.7616 22.1033 23.7925 22.1732 23.8437 22.2271C24.2854 22.2917 24.4875 22.5396 25 22.5396C25.5146 22.5396 25.7146 22.2917 26.1583 22.2271C26.2082 22.1726 26.2383 22.1029 26.2437 22.0292C26.1604 21.8833 25.7771 21.7271 25.5791 21.725C25.3708 21.725 25.3041 21.8396 25 21.8396ZM49.9729 26.5687C49.9413 27.1628 49.8885 27.7555 49.8146 28.3458C46.9812 28.8146 45.9708 26.2917 43.0708 26.4187C43.2437 27.0333 43.3833 27.6604 43.4937 28.3C45.8854 28.3 46.8479 30.5354 49.5104 30.2062C49.3708 30.8896 49.2021 31.5646 49.0062 32.2271C46.9021 32.4354 46.1625 30.3438 43.7271 30.4021C43.7479 30.7479 43.7583 31.0979 43.7583 31.4521L43.7479 32.0354L48.4771 33.8396C48.2296 34.5094 47.9537 35.1683 47.65 35.8146C46.2291 35.7375 45.7396 33.9146 43.5771 34.0583C43.5123 34.523 43.4303 34.9851 43.3312 35.4437C45.2083 35.3125 45.6125 37.0417 46.9562 37.1812C46.6138 37.8054 46.2455 38.415 45.8521 39.0083C45.0562 38.5813 44.3646 37.2938 42.8521 37.2146C43.0087 36.7344 43.1449 36.2479 43.2604 35.7562C41.9187 35.7562 40.3854 35.2354 39.1021 34.0646C39.5187 31.6896 35.8354 29.275 35.8354 27.5375C35.8354 25.65 36.7896 24.6063 36.7896 22.0625C36.7896 20.1729 35.8729 18.125 34.4896 16.725C34.2325 16.4626 33.945 16.2318 33.6333 16.0375C34.9041 17.6083 35.8791 19.4729 35.8791 21.6313C35.8791 24.0271 34.7646 25.2917 34.7646 27.5042C34.7646 29.7146 38 31.6292 38 33.9083C38 34.8042 37.7125 35.6792 36.7666 37.4021C38.2187 38.8521 40.1104 39.6437 41.3291 39.6437C41.725 39.6437 41.9396 39.5229 42.0812 39.2125C42.2035 38.9437 42.3195 38.6721 42.4291 38.3979C43.7416 38.4479 44.3458 39.6417 45.0729 40.1187C44.6729 40.6562 44.2541 41.1729 43.8146 41.6729C43.3271 41.1333 42.6708 40.225 41.7104 39.9729C41.5395 40.3066 41.3589 40.6352 41.1687 40.9583C41.9937 41.1833 42.5583 42.0167 42.9958 42.5646C42.524 43.0536 42.0326 43.5235 41.5229 43.9729C41.2041 43.475 40.7062 42.8458 40.1479 42.5062C39.9428 42.7833 39.7295 43.0543 39.5083 43.3187C39.9812 43.6417 40.4 44.2188 40.6729 44.6896C40.0833 45.1625 39.4729 45.6125 38.8396 46.0333C38.5271 43.4917 35.0604 41.7521 35.9958 38.8042C35.6896 39.325 35.3229 39.9729 35.3229 40.7562C35.3229 42.8896 37.5937 44.5812 37.7771 46.7021C37.3062 46.9833 36.8229 47.2479 36.3333 47.5C36.25 45.1687 33.8458 42.6187 33.8458 40.7083C33.8458 38.5729 36.6416 36.4271 36.6416 33.9083C36.6416 31.3875 33.4146 29.6396 33.4146 27.4271C33.4146 25.2146 34.7875 23.9417 34.7875 21.1042C34.7875 19.0271 33.8 16.925 32.275 15.5833C32.0164 15.3496 31.7294 15.1495 31.4208 14.9875C32.8583 16.7125 33.6916 18.2792 33.6916 20.6521C33.6916 23.3187 32.1187 24.7979 32.1187 27.4104C32.1187 30.0229 35.2854 31.4729 35.2854 33.9104C35.2854 36.3438 32.3375 38.3937 32.3375 40.8958C32.3375 43.1708 34.9354 45.4417 34.975 48.1396C34.4053 48.3879 33.8264 48.6144 33.2396 48.8187C33.5708 46.0917 30.6458 43.2792 30.6458 41.0542C30.6458 38.6229 33.7021 36.5312 33.7021 33.9083C33.7021 31.2833 30.5958 30.0646 30.5958 27.3708C30.5958 24.6792 32.5021 23.1896 32.5021 20.2146C32.4959 19.1136 32.239 18.0285 31.751 17.0416C31.2629 16.0548 30.5565 15.192 29.6854 14.5187L29.5791 14.4396C29.4208 14.3229 29.2916 14.4625 29.4041 14.6021C30.5875 16.0812 31.2208 17.575 31.2208 19.7896C31.2208 22.5083 29.0291 24.7187 29.0291 27.3562C29.0291 30.4667 31.9708 31.3562 31.9708 33.9083C31.9708 36.4604 28.8166 38.5021 28.8166 41.2104C28.8166 43.7229 31.8021 46.5125 31.2896 49.4125C30.688 49.5691 30.0806 49.7025 29.4687 49.8125C30.0291 46.2021 27.1 43.6083 27.1 41.2458C27.1 38.6875 30.3666 36.4083 30.3666 33.9083C30.3666 31.5521 28.0229 30.7812 27.7146 28.3687C27.6729 28.0396 27.4083 27.7958 27.0437 27.8562C26.5666 27.9437 25.9562 28.2562 24.9979 28.2562C24.0396 28.2562 23.4291 27.9437 22.9521 27.8562C22.5896 27.7958 22.325 28.0396 22.2833 28.3687C21.975 30.7812 19.6291 31.55 19.6291 33.9104C19.6291 36.4083 22.8958 38.6875 22.8958 41.2438C22.8958 43.6083 19.9687 46.2021 20.5271 49.8125C19.9154 49.7016 19.308 49.5682 18.7062 49.4125C18.1937 46.5125 21.1791 43.725 21.1791 41.2104C21.1791 38.5021 18.025 36.4604 18.025 33.9083C18.025 31.3562 20.9666 30.4667 20.9666 27.3562C20.9666 24.7187 18.775 22.5104 18.775 19.7875C18.775 17.575 19.4083 16.0792 20.5937 14.6C20.7041 14.4625 20.575 14.3229 20.4166 14.4396L20.3125 14.5187C19.4418 15.1913 18.7358 16.0534 18.2481 17.0397C17.7604 18.0259 17.5039 19.1102 17.4979 20.2104C17.4979 23.1854 19.4041 24.675 19.4041 27.3687C19.4041 30.0604 16.2958 31.2812 16.2958 33.9062C16.2958 36.5271 19.3521 38.6187 19.3521 41.0521C19.3521 43.2771 16.4291 46.0896 16.7604 48.8167C16.1736 48.6121 15.5947 48.3856 15.025 48.1375C15.0646 45.4375 17.6604 43.1667 17.6604 40.8917C17.6604 38.3917 14.7146 36.3396 14.7146 33.9062C14.7146 31.4708 17.8791 30.0187 17.8791 27.4062C17.8791 24.7958 16.3083 23.3146 16.3083 20.6479C16.3083 18.2729 17.1416 16.7104 18.5791 14.9854C18.2583 15.1521 17.9937 15.3396 17.725 15.5792C16.9481 16.2764 16.3239 17.1268 15.8915 18.0769C15.4591 19.027 15.2279 20.0563 15.2125 21.1C15.2125 23.9375 16.5854 25.2104 16.5854 27.4229C16.5854 29.6375 13.3583 31.3813 13.3583 33.9042C13.3583 36.425 16.1541 38.5708 16.1541 40.7042C16.1541 42.6167 13.7479 45.1667 13.6666 47.4958C13.1767 47.246 12.6951 46.9799 12.2229 46.6979C12.4041 44.5792 14.6771 42.8854 14.6771 40.7521C14.6771 39.9708 14.3104 39.3208 14.0041 38.8021C14.9375 41.7479 11.4708 43.4896 11.1583 46.0292C10.5273 45.609 9.91561 45.1606 9.32498 44.6854C9.59789 44.2167 10.0166 43.6375 10.4916 43.3167C10.2693 43.0519 10.0553 42.7803 9.84998 42.5021C9.29164 42.8417 8.79373 43.4729 8.47498 43.9687C7.96548 43.5198 7.47412 43.0507 7.00206 42.5625C7.43956 42.0125 8.00623 41.1792 8.83123 40.9542C8.6402 40.6312 8.45887 40.3026 8.28748 39.9687C7.32914 40.2229 6.67081 41.1312 6.18331 41.6708C5.74425 41.1695 5.32517 40.6511 4.92706 40.1167C5.65623 39.6375 6.25623 38.4437 7.57081 38.3937C7.68123 38.6667 7.79581 38.9396 7.91873 39.2062C8.06039 39.5187 8.27289 39.6396 8.66873 39.6396C9.88956 39.6396 11.7791 38.8479 13.2312 37.3979C12.2875 35.6771 12.0021 34.8021 12.0021 33.9042C12.0021 31.625 15.2354 29.7125 15.2354 27.5C15.2354 25.2896 14.1208 24.025 14.1208 21.6292C14.1208 19.4688 15.0958 17.6062 16.3666 16.0333C16.0542 16.2275 15.766 16.4583 15.5083 16.7208C14.1271 18.125 13.2083 20.1729 13.2083 22.0604C13.2083 24.6042 14.1646 25.65 14.1646 27.5375C14.1646 29.275 10.4812 31.6896 10.8979 34.0625C9.61248 35.2333 8.07914 35.7562 6.73748 35.7562C6.85385 36.2475 6.98937 36.7339 7.14373 37.2146C5.63331 37.2938 4.94373 38.5812 4.14373 39.0062C3.75006 38.4138 3.38167 37.8049 3.03956 37.1812C4.38539 37.0396 4.78956 35.3125 6.66873 35.4437C6.56972 34.9851 6.48772 34.523 6.42289 34.0583C4.26039 33.9125 3.76873 35.7375 2.34789 35.8146C2.04492 35.1683 1.76967 34.5094 1.52289 33.8396L6.24998 32.0333L6.23956 31.45C6.23956 31.0958 6.24998 30.7458 6.26873 30.3979C3.83539 30.3417 3.09373 32.4312 0.989561 32.225C0.794452 31.5586 0.626948 30.8844 0.487478 30.2042C3.14581 30.5312 4.11248 28.2958 6.50414 28.2979C6.61106 27.6631 6.75154 27.0345 6.92498 26.4146C4.02498 26.2896 3.01248 28.8104 0.183311 28.3417C0.10898 27.7521 0.0561669 27.1601 0.0249776 26.5667C3.31664 26.9333 4.54789 24.2292 7.54581 24.5604C7.82654 23.8474 8.15363 23.1536 8.52498 22.4833C4.76873 21.8229 3.49373 24.9646 -0.00210571 24.4833C0.377061 11 11.425 0.1875 25 0.1875C38.575 0.1875 49.6229 11 50 24.4854C46.5021 24.9688 45.2291 21.8271 41.4729 22.4854C41.8416 23.1521 42.1708 23.8479 42.4521 24.5625C45.4479 24.2312 46.6812 26.9375 49.9729 26.5687ZM14.25 16.0792C12.4083 15.3271 10.1791 15.5 8.27498 16.725C7.97914 14.9521 7.01873 13.3771 5.64998 12.4292C5.46039 12.2979 5.26456 12.4208 5.28123 12.6417C5.57081 16.3833 3.38123 19.6333 0.691644 22.4917C3.46456 23.325 5.82498 19.7542 9.42081 21C10.7139 19.0764 12.351 17.4082 14.25 16.0792ZM25 13.8146C22.6791 13.8146 20.7333 15.1271 20.225 16.825C20.1833 16.9542 20.2375 17.0396 20.3875 16.9708C20.8041 16.7833 21.2812 16.6937 21.7979 16.6937C22.7437 16.6937 23.5791 17.0417 24.0729 17.6458C24.2896 18.3667 24.3083 19.4104 24.0625 20.0042C23.6729 19.9167 23.5312 19.6167 23.15 19.6167C22.7708 19.6167 22.475 19.8833 21.8291 19.8833C21.1833 19.8833 21.1083 19.5792 20.6833 19.5792C20.1833 19.5792 20.0916 20.0938 20.0916 20.6729C20.0916 23.2604 22.4708 26.8187 25 26.8187C27.5271 26.8187 29.9041 23.2604 29.9041 20.6729C29.9041 20.0917 29.7854 19.5958 29.2646 19.5271C28.9573 19.7798 28.5659 19.9071 28.1687 19.8833C27.5229 19.8833 27.3458 19.6167 26.9646 19.6167C26.5062 19.6167 26.5521 20.5854 26.0062 20.6375C25.6416 19.7646 25.625 18.6437 25.9271 17.6458C26.4208 17.0417 27.2541 16.6937 28.2021 16.6937C28.7187 16.6937 29.1958 16.7854 29.6104 16.9708C29.7604 17.0396 29.8125 16.9542 29.775 16.825C29.2666 15.1292 27.3208 13.8146 25 13.8146ZM28.6958 17.5271C28.1396 17.5271 27.4875 17.6979 27.0771 18.1542C27.0354 18.2792 27.0354 18.4646 27.0937 18.5875C28.1041 18.2417 28.9937 18.2271 29.425 18.7083C29.6541 18.5 29.7271 18.3125 29.7271 18.0958C29.7271 17.7604 29.3854 17.5271 28.6958 17.5271ZM20.575 18.7083C21.0625 18.2208 22.0896 18.2417 23.1541 18.6354C23.2021 18.1062 22.2521 17.525 21.3041 17.525C20.6146 17.525 20.2729 17.7583 20.2729 18.0958C20.2729 18.3125 20.3458 18.5021 20.575 18.7083ZM36.575 9.95208C34.7416 10.0833 33.1521 10.7125 31.8625 11.7604C32.3868 10.2685 33.1002 8.84999 33.9854 7.53958C31.6521 7.7875 29.7 8.64167 28.2771 10.1L27.1604 7.17708L29.6354 4.99375L26.3229 4.75833L25 1.67708L23.6771 4.76042L20.3646 4.99375L22.8375 7.17917L21.725 10.1C20.3 8.64167 18.35 7.7875 16.0166 7.53958C16.8994 8.85075 17.6114 10.2691 18.1354 11.7604C16.8479 10.7125 15.2562 10.0833 13.4229 9.95208C14.5229 11.3667 15.4979 12.8729 16.2187 14.4937C16.3021 14.6771 16.4771 14.7375 16.6646 14.6417C19.2539 13.3553 22.1066 12.6877 24.9979 12.6917C27.9937 12.6917 30.8208 13.3958 33.3333 14.6417C33.5229 14.7375 33.6979 14.6771 33.7791 14.4958C34.5021 12.8729 35.4771 11.3667 36.5771 9.95417L36.575 9.95208ZM40.5791 21.0021C44.175 19.7563 46.5375 23.325 49.3083 22.4937C46.6187 19.6354 44.4312 16.3854 44.7208 12.6417C44.7375 12.4229 44.5396 12.2979 44.3521 12.4292C42.9833 13.3792 42.0208 14.9542 41.7271 16.725C39.8229 15.5021 37.5937 15.3292 35.7521 16.0812C37.65 17.4107 39.2864 19.0789 40.5791 21.0021Z" fill="#008248"/>
</svg>
